<?xml version="1.0" encoding="UTF-8" standalone="no"?>
<!-- Created with Inkscape (http://www.inkscape.org/) -->

<svg
   width="16.933332mm"
   height="16.933332mm"
   viewBox="0 0 16.933332 16.933332"
   version="1.1"
   id="svg5"
   inkscape:version="1.1.1 (3bf5ae0d25, 2021-09-20)"
   sodipodi:docname="cash.svg"
   xmlns:inkscape="http://www.inkscape.org/namespaces/inkscape"
   xmlns:sodipodi="http://sodipodi.sourceforge.net/DTD/sodipodi-0.dtd"
   xmlns="http://www.w3.org/2000/svg"
   xmlns:svg="http://www.w3.org/2000/svg">
  <sodipodi:namedview
     id="namedview7"
     pagecolor="#ffffff"
     bordercolor="#666666"
     borderopacity="1.0"
     inkscape:pageshadow="2"
     inkscape:pageopacity="0.0"
     inkscape:pagecheckerboard="0"
     inkscape:document-units="mm"
     showgrid="false"
     fit-margin-top="0"
     fit-margin-left="0"
     fit-margin-right="0"
     fit-margin-bottom="0"
     scale-x="1"
     units="mm"
     width="512px"
     inkscape:zoom="1.5488348"
     inkscape:cx="10.007523"
     inkscape:cy="15.818343"
     inkscape:window-width="1920"
     inkscape:window-height="1007"
     inkscape:window-x="0"
     inkscape:window-y="0"
     inkscape:window-maximized="1"
     inkscape:current-layer="layer1" />
  <defs
     id="defs2" />
  <g
     inkscape:label="Layer 1"
     inkscape:groupmode="layer"
     id="layer1"
     transform="translate(-102.26838,-129.87348)">
    <g
       id="g1090"
       transform="matrix(0.12865793,0,0,0.12493324,96.9446,120.40129)">
      <path
         style="fill:#fddbcc;stroke-width:0.264583"
         d="m 85.432454,210.89661 c -1.36698,-0.29218 -17.360455,-6.04785 -22.68802,-8.16487 -0.385009,-0.15299 -0.463999,-0.0343 -0.468831,0.70421 -0.01479,2.26031 -2.165615,4.72768 -4.59272,5.26864 -0.855134,0.19059 -3.305717,0.26791 -6.646261,0.20969 -5.221377,-0.091 -5.30813,-0.10189 -6.531147,-0.82084 -0.681715,-0.40074 -1.499634,-1.09397 -1.817599,-1.54051 -1.319628,-1.85325 -1.308545,-1.62907 -1.308545,-26.46718 0,-15.35019 0.09504,-23.67139 0.280209,-24.53483 0.343399,-1.60121 1.765163,-3.35462 3.2769,-4.04127 0.938925,-0.42647 1.815272,-0.48814 7.008835,-0.49323 5.486751,-0.005 6.022131,0.036 7.077924,0.54712 1.983219,0.96006 3.258215,3.0405 3.258215,5.31652 v 0.91326 l 2.745725,0.24667 2.745725,0.24666 0.143849,-4.89479 c 0.103653,-3.52695 0.299643,-5.61849 0.701349,-7.48455 1.886286,-8.76237 6.405676,-17.87808 12.854289,-25.92739 3.584559,-4.47434 10.468583,-11.18141 15.072603,-14.68516 l 0.793749,-0.60406 -2.116666,0.1727 c -2.834296,0.23126 -6.547575,1.19085 -8.581813,2.21773 -1.532128,0.77341 -3.538611,2.5471 -5.344485,4.72439 -0.883724,1.06548 -2.069603,1.14054 -3.01906,0.19108 -0.976855,-0.97685 -0.830164,-1.87337 0.629703,-3.84848 3.196026,-4.32404 8.305601,-6.65898 16.514092,-7.54651 0.836745,-0.0905 1.521355,-0.27324 1.521355,-0.40616 0,-0.477299 -3.069757,-2.640247 -4.365625,-3.076019 -0.995244,-0.334679 -2.371471,-0.454224 -5.55625,-0.482641 -3.630311,-0.03239 -4.497157,-0.12407 -6.085416,-0.643595 -2.221103,-0.72653 -4.713806,-1.951593 -5.43165,-2.669437 -1.142809,-1.142809 -0.240583,-3.431892 1.352656,-3.431892 0.357171,0 1.570979,0.462974 2.697353,1.028832 2.570861,1.291527 4.815218,1.728475 7.95751,1.549229 4.592576,-0.261974 7.51324,0.589754 10.575586,3.084068 1.205367,0.981785 1.615577,1.187295 1.899525,0.951639 0.298102,-0.247405 0.154022,-0.643398 -0.814662,-2.23895 -2.758858,-4.544213 -4.87735,-10.001115 -4.873384,-12.553079 0.0026,-1.628067 0.543554,-3.012358 1.583949,-4.052752 0.822465,-0.822465 1.184825,-0.998153 2.05872,-0.998153 0.583311,0 1.579584,0.23551 2.213939,0.523356 1.63587,0.742294 2.55015,0.664135 4.57457,-0.391064 1.5142,-0.789252 2.0376,-0.925851 3.54334,-0.92475 1.49705,0.0011 2.04176,0.142439 3.56871,0.926041 0.9911,0.508613 2.1396,0.92475 2.55223,0.92475 0.41262,0 1.65596,-0.430131 2.76297,-0.955847 1.81847,-0.863588 2.18504,-0.946113 3.79778,-0.854984 1.36552,0.07716 2.17113,0.301801 3.42784,0.955847 1.90364,0.99074 2.75234,1.055478 4.34756,0.331628 4.50725,-2.045217 7.11525,2.493742 5.0021,8.705666 -0.8169,2.401415 -2.09185,5.003233 -4.02888,8.221856 l -1.67193,2.778125 0.63077,0.661458 c 1.04553,1.096387 1.71593,2.886938 1.7653,4.714848 l 0.0451,1.67214 2.61585,2.11326 c 1.43871,1.16229 3.13239,2.60348 3.76371,3.20265 1.05688,1.00303 1.13849,1.17486 1.02945,2.16772 -0.11292,1.02814 -0.0384,1.16043 1.6009,2.84184 1.5423,1.58194 1.78162,1.73512 2.32448,1.48778 1.08946,-0.49639 1.85837,-0.0176 4.01878,2.50253 10.91864,12.73659 16.36374,27.15028 15.17455,40.16843 -0.33616,3.67987 -1.3829,8.31406 -2.49124,11.02932 -0.37125,0.9095 -0.61401,1.65365 -0.53945,1.65365 0.0746,0 0.92941,-0.34694 1.89969,-0.77098 4.49376,-1.96391 8.33133,-1.44389 10.89537,1.47639 2.36088,2.68889 2.89389,6.32374 1.37865,9.40162 -0.45271,0.91958 -1.15716,1.9845 -1.56545,2.3665 -0.8825,0.82566 -37.69056,24.17667 -39.77267,25.23176 -1.85258,0.93877 -3.90298,1.64646 -6.16458,2.12768 -2.68875,0.57211 -36.494864,0.52441 -39.207176,-0.0553 z"
         id="path1104" />
      <path
         style="fill:#fdc9bc;stroke-width:0.264583"
         d="m 85.465215,210.90743 c -1.000628,-0.21739 -2.607972,-0.69329 -3.571875,-1.05756 -0.963904,-0.36428 -5.622083,-2.09941 -10.35151,-3.85586 -4.729427,-1.75645 -8.747786,-3.2504 -8.929687,-3.31991 -0.203786,-0.0779 -0.330729,0.10123 -0.330729,0.46657 0,1.91232 -1.400201,4.09563 -3.266738,5.09376 -1.039762,0.55602 -1.412078,0.58764 -6.91972,0.58764 -4.119778,0 -6.106159,-0.10112 -6.797187,-0.34602 -1.253371,-0.4442 -2.995925,-2.18676 -3.440124,-3.44013 -0.275392,-0.77706 -0.346022,-5.945 -0.346022,-25.31802 v -24.34166 l 0.571081,-1.05834 c 0.314095,-0.58208 0.909407,-1.37944 1.322917,-1.7719 1.4795,-1.40419 2.207358,-1.53539 8.518332,-1.53539 h 5.799118 l 1.41519,0.73931 c 1.806601,0.94378 2.917035,2.62302 3.086593,4.66765 l 0.117316,1.41468 2.284726,0.17785 c 1.256599,0.0978 2.493085,0.23785 2.747746,0.31118 0.425014,0.12238 0.463148,-0.16677 0.464582,-3.52252 0.0032,-7.46002 1.627439,-14.10457 5.291722,-21.64752 4.641122,-9.55378 11.551483,-17.99225 21.429633,-26.16845 1.382447,-1.14426 2.573072,-2.13739 2.645833,-2.20696 0.291703,-0.2789 -4.492437,0.29034 -6.35,0.75555 -2.330778,0.58373 -5.858449,2.27959 -7.074146,3.40075 -0.471043,0.43442 -1.289137,1.35846 -1.817989,2.05344 -1.151924,1.51376 -1.342612,1.65117 -2.298535,1.65641 -0.908839,0.005 -2.038496,-1.05707 -2.038496,-1.9165 0,-0.94712 1.305116,-2.79303 3.2703,-4.62541 3.135614,-2.9237 7.959452,-4.80647 13.663099,-5.33277 1.319233,-0.12173 2.459389,-0.28211 2.533681,-0.3564 0.262816,-0.26282 -2.421792,-2.400499 -3.856664,-3.070955 -1.370145,-0.640211 -1.718135,-0.68217 -5.953125,-0.71779 -3.882313,-0.03265 -4.7514,-0.119709 -6.349999,-0.636066 -5.117952,-1.653128 -7.183594,-3.787683 -5.34076,-5.518936 0.846225,-0.794987 1.639152,-0.722998 3.629625,0.329532 2.627371,1.389309 4.400815,1.741014 8.778907,1.741014 5.204967,0 7.03096,0.552426 10.106143,3.057451 1.310291,1.067356 1.578155,1.190329 1.897407,0.871077 0.31925,-0.319252 0.28128,-0.504848 -0.269008,-1.31466 -0.352404,-0.518611 -1.237631,-2.063031 -1.967171,-3.432044 -3.781251,-7.095691 -4.36943,-11.419983 -1.905601,-14.010005 0.83181,-0.874414 1.165969,-1.045861 2.028968,-1.041007 0.568235,0.0032 1.552173,0.241321 2.186532,0.529166 1.63736,0.742975 2.76788,0.665055 4.46859,-0.307995 1.11487,-0.637863 1.87408,-0.861475 3.26205,-0.960784 1.66794,-0.119341 1.96676,-0.05451 3.83214,0.831351 1.11273,0.528431 2.41058,0.960784 2.88411,0.960784 0.47353,0 1.66045,-0.416718 2.6376,-0.926041 2.49628,-1.30115 4.37112,-1.302489 6.93184,-0.0049 2.09486,1.061486 3.0082,1.139106 4.72821,0.401824 1.78486,-0.765081 2.84001,-0.690967 3.94237,0.276912 2.56452,2.251681 2.24326,6.475775 -0.97502,12.819962 -0.66437,1.309687 -1.79988,3.332036 -2.52335,4.494107 l -1.3154,2.112857 0.79953,0.910608 c 1.1446,1.303633 1.60359,2.561288 1.63334,4.475448 l 0.026,1.67427 3.09303,2.50207 c 4.28621,3.46727 4.98115,4.40517 4.19055,5.65563 -0.19062,0.30148 0.18913,0.81144 1.62073,2.1765 1.59834,1.52404 1.94449,1.74273 2.38518,1.50688 1.03484,-0.55383 1.92582,-0.0267 3.9736,2.35106 14.35381,16.66649 19.06006,35.82708 12.67775,51.61499 -0.6632,1.64057 -0.77363,1.61962 2.08937,0.39641 2.20835,-0.94352 5.1636,-1.15353 7.11437,-0.50559 1.60362,0.53264 3.68192,2.41397 4.5412,4.1108 0.71139,1.40481 0.99307,4.58605 0.5509,6.22178 -0.60011,2.22 -1.68844,3.45315 -4.86218,5.50924 -11.02096,7.13983 -36.54766,23.12753 -37.92001,23.74978 -0.91467,0.41473 -2.53533,1.02143 -3.60147,1.34822 -1.92195,0.5891 -2.09601,0.59464 -20.45927,0.65151 -15.596035,0.0483 -18.808138,-0.005 -20.340155,-0.33788 z m 38.936415,-9.25309 c 1.12063,-0.23147 2.69319,-0.69083 3.49458,-1.02079 0.80139,-0.32996 6.33864,-3.69879 12.30499,-7.48629 9.82702,-6.2383 10.9216,-7.00391 11.63091,-8.13534 0.59565,-0.95014 0.80837,-1.6475 0.88905,-2.9146 0.10629,-1.66919 -0.30449,-3.57004 -0.77149,-3.57004 -0.13698,0 -6.19769,2.61937 -13.46826,5.82083 l -13.21922,5.82083 H 113.5049 c -6.46651,0 -11.95003,-0.0739 -12.18559,-0.16435 -0.48233,-0.18508 -1.20248,-1.43786 -1.20248,-2.09182 0,-0.2367 0.34803,-0.77839 0.7734,-1.20376 l 0.77339,-0.7734 h 10.4714 10.47139 l -0.003,-2.3151 c -0.002,-1.8681 -0.12187,-2.57054 -0.6204,-3.63802 -1.08346,-2.31999 -2.69401,-3.82127 -4.93326,-4.59854 -0.50932,-0.17679 -6.04573,-0.90937 -12.30312,-1.62795 -6.2574,-0.71858 -12.184646,-1.4844 -13.171661,-1.70182 -2.628682,-0.57905 -5.29292,-1.72109 -9.805084,-4.20301 -4.736632,-2.60542 -7.72681,-3.90971 -10.62528,-4.63467 -2.499506,-0.62518 -5.73676,-1.09339 -7.55977,-1.09339 h -1.303771 v 3.175 c 0,2.82223 -0.0588,3.2338 -0.529167,3.70417 -0.291042,0.29104 -0.70776,0.52917 -0.926042,0.52917 -0.326319,0 -0.396875,0.47037 -0.396875,2.64583 0,2.02084 0.08286,2.64583 0.350755,2.64583 0.192915,0 0.607952,0.27378 0.922306,0.60839 0.5582,0.59418 0.573184,0.80869 0.641433,9.18263 l 0.06988,8.57424 10.971773,4.07493 c 6.034476,2.2412 11.689945,4.23128 12.567708,4.42237 1.22125,0.26588 5.682771,0.35239 19.003445,0.36849 14.94104,0.018 17.6962,-0.0386 19.445,-0.39982 z"
         id="path1102" />
      <path
         style="fill:#fdde7b;stroke-width:0.264583"
         d="m 87.019954,211.15167 c -1.994135,-0.28864 -4.66017,-1.17562 -14.225851,-4.7329 -5.641406,-2.09793 -10.314609,-3.81441 -10.384895,-3.81441 -0.07029,0 -0.127794,0.33584 -0.127794,0.74631 0,1.26684 -1.337208,3.53418 -2.601726,4.41143 l -1.146517,0.79539 -6.312503,0.0794 c -5.838681,0.0735 -6.388138,0.0405 -7.320149,-0.43879 -1.172435,-0.60294 -2.224998,-1.67005 -2.829524,-2.86862 -0.383894,-0.76113 -0.42708,-3.32783 -0.42708,-25.38261 0,-24.3465 0.0043,-24.54467 0.552924,-25.67804 0.660859,-1.36516 2.012353,-2.54188 3.395263,-2.95621 0.61885,-0.18542 3.141191,-0.29976 6.533551,-0.2962 4.790921,0.005 5.66626,0.0704 6.583886,0.4913 2.068021,0.94866 3.258635,2.62976 3.496797,4.93733 l 0.145127,1.40615 2.015496,0.16739 c 1.108523,0.0921 2.326725,0.22572 2.707117,0.297 l 0.691623,0.12959 0.148334,-4.70947 c 0.17373,-5.51587 0.864351,-9.30677 2.600203,-14.27284 4.312787,-12.33837 11.97443,-22.42069 25.770431,-33.91254 l 1.054036,-0.878 -2.116666,0.1526 c -5.88219,0.42406 -10.389872,2.43479 -13.103478,5.84502 -0.736619,0.92573 -1.580851,1.7598 -1.876073,1.8535 -0.941682,0.29888 -1.813582,-0.10747 -2.265916,-1.05602 -0.373882,-0.78404 -0.382418,-1.01347 -0.0662,-1.77899 0.557845,-1.35045 4.107722,-4.76697 6.066872,-5.83895 3.342936,-1.82914 8.154873,-3.10689 11.707812,-3.10886 0.836744,-4.8e-4 1.521354,-0.10475 1.521354,-0.23173 0,-0.48664 -2.488131,-2.493803 -3.922408,-3.164191 -1.418114,-0.662832 -1.736781,-0.703298 -5.734883,-0.728249 -4.810252,-0.03002 -6.490703,-0.359705 -9.600298,-1.883478 -2.920777,-1.431247 -3.689074,-2.820588 -2.317977,-4.191684 0.86134,-0.861343 1.39382,-0.821359 3.524861,0.264677 2.737826,1.395272 4.407111,1.730809 8.64744,1.738192 2.043097,0.0036 4.245472,0.128777 4.894164,0.278265 1.621891,0.373758 3.564991,1.382715 5.346883,2.776374 0.940961,0.735947 1.655262,1.112719 1.918229,1.011809 0.230451,-0.08843 0.418991,-0.202963 0.418991,-0.254519 0,-0.05155 -0.83218,-1.546275 -1.849289,-3.321599 -2.903704,-5.068312 -4.490704,-9.828222 -4.086558,-12.256872 0.400579,-2.407216 1.936623,-4.118757 3.686886,-4.108125 0.436563,0.0027 1.27,0.220531 1.852084,0.484177 1.990857,0.901727 2.293557,0.891345 4.391697,-0.150641 1.4513,-0.720751 2.3908,-1.001713 3.62882,-1.085212 1.51843,-0.10241 1.85568,-0.02099 3.70417,0.894309 1.11851,0.553837 2.395,0.99742 2.83664,0.985739 0.44165,-0.01168 1.56506,-0.420701 2.49647,-0.908934 1.46019,-0.765413 1.95286,-0.887696 3.57645,-0.887696 1.57581,0 2.16126,0.136158 3.58895,0.834686 2.45569,1.201502 2.46062,1.201998 4.4855,0.451444 2.30009,-0.852563 3.3305,-0.721642 4.46187,0.566918 0.86935,0.990137 1.35377,2.368755 1.35608,3.859315 0.004,2.676427 -2.07252,7.88477 -5.10701,12.808469 l -1.46757,2.38125 0.62801,0.661458 c 1.0709,1.127927 1.80685,3.134418 1.79534,4.894788 -0.0103,1.56974 0.003,1.59722 1.14546,2.45604 2.76859,2.08041 5.96848,4.90663 6.24668,5.51722 0.21838,0.47928 0.22377,0.87048 0.0195,1.41173 -0.26753,0.70876 -0.18839,0.84225 1.48223,2.50006 1.70889,1.6958 1.7911,1.74217 2.59292,1.46266 1.15739,-0.40347 1.76622,-0.0138 3.94859,2.52729 10.04737,11.6989 15.20832,24.13167 15.20325,36.62481 -0.002,5.55846 -0.79285,10.04547 -2.53907,14.41032 -0.36492,0.91216 -0.66349,1.72531 -0.66349,1.80701 0,0.0817 0.98226,-0.27789 2.18281,-0.79907 1.7961,-0.77971 2.58124,-0.96668 4.43177,-1.05533 2.13787,-0.10241 2.33351,-0.0638 3.96058,0.78219 3.06015,1.59105 4.64861,4.43175 4.46214,7.97976 -0.10851,2.06456 -0.73448,3.67102 -1.99819,5.12807 -0.83925,0.96765 -37.50438,24.26979 -40.60454,25.80579 -1.11822,0.55403 -2.96369,1.26967 -4.10104,1.59031 -2.0334,0.57325 -2.37034,0.58361 -20.19186,0.62056 -9.968184,0.0207 -18.481152,-0.0141 -18.917715,-0.0773 z m 37.658576,-4.39973 c 0.92139,-0.24604 2.52873,-0.84761 3.57188,-1.33683 1.04314,-0.48921 10.35006,-6.24551 20.68204,-12.79177 17.67208,-11.19689 18.8207,-11.97062 19.38073,-13.05524 0.32742,-0.63412 0.59531,-1.51921 0.59531,-1.96686 0,-1.08799 -1.01295,-3.01476 -1.93923,-3.68868 -0.56476,-0.4109 -1.12187,-0.53782 -2.26854,-0.51684 -1.67887,0.0307 -1.17981,-0.17767 -26.48389,11.0597 l -12.56771,5.58123 -11.94867,0.0739 -11.94866,0.0739 -0.72929,-0.6273 c -0.92064,-0.79191 -0.98613,-2.07099 -0.14891,-2.90856 0.5755,-0.57575 0.669,-0.58124 11.15659,-0.65546 l 10.57623,-0.0749 v -2.19313 c 0,-2.85095 -0.51616,-4.32227 -2.13942,-6.09837 -2.12356,-2.32351 -2.42119,-2.39889 -15.28819,-3.87199 -6.203826,-0.71025 -11.98694,-1.42572 -12.851368,-1.58991 -2.531091,-0.48079 -5.618086,-1.71813 -9.287806,-3.72278 -1.885402,-1.02993 -4.242377,-2.2846 -5.23772,-2.78814 -3.932807,-1.98962 -9.973366,-3.52721 -13.866847,-3.52971 l -1.653645,-0.001 v 3.00703 c 0,2.6415 -0.06666,3.09177 -0.548371,3.70417 -0.301603,0.38342 -0.777853,0.69714 -1.058333,0.69714 -0.469564,0 -0.509963,0.2096 -0.509963,2.64583 0,2.08169 0.07837,2.64583 0.367563,2.64583 0.20216,0 0.648645,0.22752 0.992188,0.50559 l 0.624624,0.5056 0.132292,11.17964 0.132291,11.17964 6.614583,2.46777 c 13.751409,5.13037 16.781467,6.17699 18.56837,6.41374 0.9925,0.1315 9.365014,0.21324 18.605582,0.18165 14.82019,-0.0507 16.99856,-0.11019 18.47629,-0.5048 z"
         id="path1100" />
      <path
         style="fill:#e8ba69;stroke-width:0.264583"
         d="m 87.019954,211.15167 c -1.994135,-0.28864 -4.66017,-1.17562 -14.225851,-4.7329 -5.641406,-2.09793 -10.314609,-3.81441 -10.384895,-3.81441 -0.07029,0 -0.127794,0.33584 -0.127794,0.74631 0,1.26684 -1.337208,3.53418 -2.601726,4.41143 l -1.146517,0.79539 -6.312503,0.0794 c -5.838681,0.0735 -6.388138,0.0405 -7.320149,-0.43879 -1.172435,-0.60294 -2.224998,-1.67005 -2.829524,-2.86862 -0.383894,-0.76113 -0.42708,-3.32783 -0.42708,-25.38261 0,-24.3465 0.0043,-24.54467 0.552924,-25.67804 0.660859,-1.36516 2.012353,-2.54188 3.395263,-2.95621 0.61885,-0.18542 3.141191,-0.29976 6.533551,-0.2962 4.790921,0.005 5.66626,0.0704 6.583886,0.4913 2.068021,0.94866 3.258635,2.62976 3.496797,4.93733 l 0.145127,1.40615 2.015496,0.16739 c 1.108523,0.0921 2.326725,0.22572 2.707117,0.297 l 0.691623,0.12959 0.148334,-4.70947 c 0.17373,-5.51587 0.864351,-9.30677 2.600203,-14.27284 4.312787,-12.33837 11.97443,-22.42069 25.770431,-33.91254 l 1.054036,-0.878 -2.116666,0.1526 c -5.88219,0.42406 -10.389872,2.43479 -13.103478,5.84502 -0.736619,0.92573 -1.580851,1.7598 -1.876073,1.8535 -0.941682,0.29888 -1.813582,-0.10747 -2.265916,-1.05602 -0.373882,-0.78404 -0.382418,-1.01347 -0.0662,-1.77899 0.557845,-1.35045 4.107722,-4.76697 6.066872,-5.83895 3.342936,-1.82914 8.154873,-3.10689 11.707812,-3.10886 0.836744,-4.8e-4 1.521354,-0.10475 1.521354,-0.23173 0,-0.48664 -2.488131,-2.493803 -3.922408,-3.164191 -1.418114,-0.662832 -1.736781,-0.703298 -5.734883,-0.728249 -4.810252,-0.03002 -6.490703,-0.359705 -9.600298,-1.883478 -2.920777,-1.431247 -3.689074,-2.820588 -2.317977,-4.191684 0.86134,-0.861343 1.39382,-0.821359 3.524861,0.264677 2.737826,1.395272 4.407111,1.730809 8.64744,1.738192 2.043097,0.0036 4.245472,0.128777 4.894164,0.278265 1.621891,0.373758 3.564991,1.382715 5.346883,2.776374 0.940961,0.735947 1.655262,1.112719 1.918229,1.011809 0.230451,-0.08843 0.418991,-0.202963 0.418991,-0.254519 0,-0.05155 -0.83218,-1.546275 -1.849289,-3.321599 -2.903704,-5.068312 -4.490704,-9.828222 -4.086558,-12.256872 0.400579,-2.407216 1.936623,-4.118757 3.686886,-4.108125 0.436563,0.0027 1.27,0.220531 1.852084,0.484177 1.990857,0.901727 2.293557,0.891345 4.391697,-0.150641 1.4513,-0.720751 2.3908,-1.001713 3.62882,-1.085212 1.51843,-0.10241 1.85568,-0.02099 3.70417,0.894309 1.11851,0.553837 2.395,0.99742 2.83664,0.985739 0.44165,-0.01168 1.56506,-0.420701 2.49647,-0.908934 1.46019,-0.765413 1.95286,-0.887696 3.57645,-0.887696 1.57581,0 2.16126,0.136158 3.58895,0.834686 2.45569,1.201502 2.46062,1.201998 4.4855,0.451444 2.30009,-0.852563 3.3305,-0.721642 4.46187,0.566918 0.86935,0.990137 1.35377,2.368755 1.35608,3.859315 0.004,2.676427 -2.07252,7.88477 -5.10701,12.808469 l -1.46757,2.38125 0.62801,0.661458 c 1.0709,1.127927 1.80685,3.134418 1.79534,4.894788 -0.0103,1.56974 0.003,1.59722 1.14546,2.45604 2.76859,2.08041 5.96848,4.90663 6.24668,5.51722 0.21838,0.47928 0.22377,0.87048 0.0195,1.41173 -0.26753,0.70876 -0.18839,0.84225 1.48223,2.50006 1.70889,1.6958 1.7911,1.74217 2.59292,1.46266 1.15739,-0.40347 1.76622,-0.0138 3.94859,2.52729 10.04737,11.6989 15.20832,24.13167 15.20325,36.62481 -0.002,5.55846 -0.79285,10.04547 -2.53907,14.41032 -0.36492,0.91216 -0.66349,1.72531 -0.66349,1.80701 0,0.0817 0.98226,-0.27789 2.18281,-0.79907 1.7961,-0.77971 2.58124,-0.96668 4.43177,-1.05533 2.13787,-0.10241 2.33351,-0.0638 3.96058,0.78219 3.06015,1.59105 4.64861,4.43175 4.46214,7.97976 -0.10851,2.06456 -0.73448,3.67102 -1.99819,5.12807 -0.83925,0.96765 -37.50438,24.26979 -40.60454,25.80579 -1.11822,0.55403 -2.96369,1.26967 -4.10104,1.59031 -2.0334,0.57325 -2.37034,0.58361 -20.19186,0.62056 -9.968184,0.0207 -18.481152,-0.0141 -18.917715,-0.0773 z m 37.658576,-4.39973 c 0.92139,-0.24604 2.52873,-0.84761 3.57188,-1.33683 1.04314,-0.48921 10.35006,-6.24551 20.68204,-12.79177 17.67208,-11.19689 18.8207,-11.97062 19.38073,-13.05524 0.32742,-0.63412 0.59531,-1.51921 0.59531,-1.96686 0,-1.08799 -1.01295,-3.01476 -1.93923,-3.68868 -0.56476,-0.4109 -1.12187,-0.53782 -2.26854,-0.51684 -1.67887,0.0307 -1.17981,-0.17767 -26.48389,11.0597 l -12.56771,5.58123 -11.94867,0.0739 -11.94866,0.0739 -0.72929,-0.6273 c -0.92064,-0.79191 -0.98613,-2.07099 -0.14891,-2.90856 0.5755,-0.57575 0.669,-0.58124 11.15659,-0.65546 l 10.57623,-0.0749 v -2.19313 c 0,-2.85095 -0.51616,-4.32227 -2.13942,-6.09837 -2.12356,-2.32351 -2.42119,-2.39889 -15.28819,-3.87199 -6.203826,-0.71025 -11.98694,-1.42572 -12.851368,-1.58991 -2.531091,-0.48079 -5.618086,-1.71813 -9.287806,-3.72278 -1.885402,-1.02993 -4.242377,-2.2846 -5.23772,-2.78814 -3.932807,-1.98962 -9.973366,-3.52721 -13.866847,-3.52971 l -1.653645,-0.001 v 3.00703 c 0,2.6415 -0.06666,3.09177 -0.548371,3.70417 -0.301603,0.38342 -0.777853,0.69714 -1.058333,0.69714 -0.469564,0 -0.509963,0.2096 -0.509963,2.64583 0,2.08169 0.07837,2.64583 0.367563,2.64583 0.20216,0 0.648645,0.22752 0.992188,0.50559 l 0.624624,0.5056 0.132292,11.17964 0.132291,11.17964 6.614583,2.46777 c 13.751409,5.13037 16.781467,6.17699 18.56837,6.41374 0.9925,0.1315 9.365014,0.21324 18.605582,0.18165 14.82019,-0.0507 16.99856,-0.11019 18.47629,-0.5048 z M 119.21942,105.8985 c 5.86284,-0.77945 6.95887,-1.33971 6.95887,-3.55725 0,-1.01531 -0.14256,-1.44687 -0.66146,-2.00239 -0.74944,-0.802332 -1.22533,-0.803285 -5.68854,-0.0114 -3.1443,0.55787 -9.32332,0.5601 -12.30313,0.004 -4.75571,-0.886849 -5.30253,-0.850207 -5.94831,0.39859 -0.8991,1.73867 -0.20429,3.66319 1.52068,4.21203 0.91625,0.29153 4.75302,1.00617 6.27971,1.16966 2.34727,0.25138 7.12429,0.14767 9.84218,-0.21367 z"
         id="path1098" />
      <path
         style="fill:#e6ad4c;stroke-width:0.264583"
         d="m 87.019954,211.15246 c -1.976855,-0.2881 -4.602813,-1.16478 -14.170765,-4.73089 -5.632902,-2.09947 -10.3015,-3.81721 -10.374665,-3.81721 -0.07317,0 -0.212882,0.53251 -0.310484,1.18337 -0.243735,1.62534 -1.596767,3.5398 -3.033095,4.29165 -1.118813,0.58565 -1.408468,0.61016 -7.14375,0.60459 -6.587951,-0.006 -7.310259,-0.14965 -8.807891,-1.74677 -1.60761,-1.71439 -1.535389,-0.4384 -1.535389,-27.12726 0,-24.20761 0.0043,-24.40788 0.552924,-25.54111 0.660859,-1.36516 2.012353,-2.54188 3.395263,-2.95621 1.31896,-0.39517 11.165593,-0.39992 12.58827,-0.006 2.172899,0.60154 4.095297,3.27549 4.099566,5.70227 l 0.0015,0.83884 1.785937,0.1609 c 0.982266,0.0885 2.215388,0.21571 2.740268,0.28271 l 0.954334,0.12182 0.159377,-4.69343 c 0.224038,-6.59756 1.176732,-10.96112 3.79749,-17.39342 2.14031,-5.25311 5.704067,-11.17766 9.787906,-16.27188 2.52781,-3.15321 8.284966,-8.99256 11.627037,-11.79305 1.550442,-1.29918 3.130825,-2.63817 3.511962,-2.97552 l 0.692979,-0.61337 -2.332157,0.16553 c -5.810435,0.41241 -10.347197,2.49071 -13.020293,5.9646 -1.325184,1.72217 -1.929741,2.03716 -3.032898,1.58022 -1.138115,-0.47142 -1.486259,-1.56334 -0.900221,-2.82344 0.632582,-1.36019 3.842666,-4.50643 5.722707,-5.6089 2.920243,-1.71246 8.524509,-3.21066 12.010013,-3.21066 0.781304,0 1.420551,-0.1039 1.420551,-0.23088 0,-0.43641 -2.33498,-2.382616 -3.746444,-3.122668 -1.365094,-0.71574 -1.556258,-0.742037 -5.646264,-0.776711 -4.346411,-0.03685 -5.629224,-0.2215 -8.186883,-1.178442 -4.225525,-1.580971 -5.610285,-3.275471 -3.995975,-4.889781 0.843801,-0.843802 1.500592,-0.819034 3.154817,0.118969 2.566115,1.455073 4.553781,1.877085 8.857475,1.880573 5.292632,0.0043 7.164366,0.556287 10.401056,3.067403 0.938643,0.728227 1.655908,1.103034 1.918229,1.002372 0.230449,-0.08843 0.418989,-0.226301 0.418989,-0.306382 0,-0.08008 -0.717974,-1.373952 -1.595499,-2.87527 -2.933448,-5.018712 -4.256664,-8.600313 -4.288141,-11.606888 -0.02315,-2.211459 0.674407,-3.836399 1.991709,-4.639599 1.133234,-0.690969 1.966444,-0.654274 3.987231,0.175599 l 1.69327,0.695376 2.44432,-1.125962 c 2.24843,-1.035729 2.57559,-1.115424 4.0824,-0.994471 1.2018,0.09647 2.12017,0.387321 3.44814,1.092044 0.99554,0.528305 1.99943,0.960555 2.23087,0.960555 0.23144,0 1.31483,-0.446485 2.40752,-0.992188 1.72769,-0.862822 2.2282,-0.992187 3.83881,-0.992187 1.62059,0 2.10835,0.12794 3.9024,1.023615 l 2.05033,1.023616 1.25697,-0.448851 c 2.99375,-1.069041 3.20137,-1.09513 4.24225,-0.533078 3.80031,2.052078 3.03952,7.791667 -2.19652,16.570961 l -1.94776,3.265819 0.63146,0.661458 c 1.06528,1.115897 1.76435,3.044448 1.75888,4.852258 -0.005,1.62521 -10e-4,1.63262 1.17767,2.50576 2.53915,1.88025 5.98906,4.92772 6.26564,5.53475 0.20799,0.4565 0.21033,0.85152 0.008,1.38701 -0.26757,0.70888 -0.18833,0.8423 1.48874,2.50652 1.64269,1.6301 1.82287,1.73819 2.4806,1.48812 1.02621,-0.39016 1.73374,-0.0219 3.34716,1.74226 4.91352,5.37251 9.84833,13.13411 12.30026,19.3462 2.42366,6.14047 3.31302,10.36165 3.50483,16.63504 0.20032,6.55204 -0.5447,11.23833 -2.54264,15.99357 -0.42225,1.00499 -0.74072,1.82726 -0.70771,1.82726 0.033,0 1.06325,-0.44604 2.28941,-0.9912 2.06723,-0.9191 2.41225,-0.99123 4.74295,-0.99146 2.89736,-2.6e-4 4.04399,0.44794 5.81547,2.27332 1.52132,1.56761 2.22482,3.20192 2.34256,5.44195 0.11794,2.24404 -0.21109,3.44273 -1.4522,5.29047 -0.7962,1.18537 -1.60557,1.80148 -6.12672,4.6638 -2.86512,1.8139 -11.42301,7.23653 -19.01752,12.05028 -7.59451,4.81376 -14.6444,9.17339 -15.66642,9.68807 -1.02203,0.51469 -2.90459,1.26171 -4.18347,1.66005 l -2.32524,0.72425 -18.12396,0.0375 c -9.968177,0.0206 -18.481146,-0.0145 -18.917708,-0.0781 z m 36.380206,-4.16334 c 2.7022,-0.48925 5.06111,-1.42669 7.70224,-3.0609 13.91556,-8.61031 36.60888,-23.24658 37.09063,-23.92195 0.90516,-1.26893 0.82797,-3.71278 -0.15811,-5.00559 -1.27279,-1.66871 -2.92244,-2.15354 -4.97393,-1.46181 -0.49465,0.16678 -9.26213,3.97678 -19.48327,8.46666 l -18.5839,8.16341 h -11.60906 c -11.34395,0 -11.62499,-0.0125 -12.30621,-0.54837 -0.87353,-0.68712 -0.95581,-2.10337 -0.16797,-2.89121 0.5115,-0.5115 0.88194,-0.52917 11.09629,-0.52917 h 10.56712 l 0.17879,-1.19224 c 0.5766,-3.84508 -1.30672,-7.56753 -4.69819,-9.28611 -1.23167,-0.62414 -2.50248,-0.82188 -13.55105,-2.10858 -7.015186,-0.81698 -12.981315,-1.6414 -14.051057,-1.94163 -2.252056,-0.63207 -4.604977,-1.66906 -7.450314,-3.28357 -7.794193,-4.42259 -13.350118,-6.26056 -18.934818,-6.26388 l -1.785937,-0.001 v 3.05474 c 0,2.89052 -0.03491,3.08964 -0.649432,3.70416 -0.357188,0.35719 -0.833438,0.64944 -1.058333,0.64944 -0.340942,0 -0.408902,0.43009 -0.408902,2.58782 v 2.58783 l 0.791194,0.29864 c 0.451246,0.17033 0.905974,0.60054 1.058333,1.00127 0.163502,0.43004 0.269614,4.87878 0.273517,11.46718 l 0.0064,10.76455 10.907683,4.04094 c 11.168234,4.13748 12.155529,4.47243 14.214977,4.82253 0.654844,0.11133 8.5725,0.21226 17.594789,0.2243 12.746,0.017 16.84668,-0.0582 18.38854,-0.33739 z m 6.56911,-28.8275 c 7.18793,-8.25345 9.82414,-19.88798 7.28834,-32.16596 -0.6608,-3.19948 -2.37344,-8.09571 -4.03009,-11.5215 -3.39325,-7.01695 -7.46862,-12.5941 -14.05103,-19.22888 l -4.63987,-4.67679 -3.04271,-0.17038 c -4.76542,-0.26686 -8.84124,-1.01595 -11.39421,-2.09414 -0.979898,-0.41384 -11.143906,9.07589 -15.419118,14.39623 -5.882097,7.32004 -10.132239,15.76974 -11.818659,23.49664 -0.712073,3.2626 -1.112443,7.98462 -0.904555,10.66843 l 0.176824,2.28278 1.622049,0.48054 c 2.993366,0.88679 6.095032,2.25569 9.629894,4.25009 4.406199,2.48602 6.384689,3.41028 8.396319,3.92238 0.873125,0.22227 6.766718,0.99984 13.096876,1.72793 6.33015,0.72809 11.86656,1.39509 12.30312,1.48222 1.52738,0.30484 4.50905,1.94047 5.78445,3.17313 1.5807,1.52772 2.66251,3.19793 3.22339,4.97662 0.23427,0.74288 0.47647,1.5099 0.53824,1.70448 0.14749,0.46465 1.36859,-0.55413 3.24074,-2.70382 z m -19.13682,-17.88954 c -2.61794,-0.83956 -4.65002,-2.09538 -6.64644,-4.10746 -2.03478,-2.05077 -3.54128,-4.67384 -4.13097,-7.19277 l -0.32244,-1.37731 -1.32924,-0.0779 -1.32924,-0.0779 v -1.71979 -1.7198 l 1.124479,-0.0813 c 1.089398,-0.0788 1.124479,-0.10978 1.124479,-0.99219 0,-0.88552 -0.02927,-0.91083 -1.053293,-0.91083 -1.210556,0 -1.422442,-0.39794 -1.279218,-2.40247 l 0.08355,-1.1694 1.294252,-0.1323 1.294251,-0.13229 0.35393,-1.38888 c 0.77463,-3.03981 3.01143,-5.88758 5.47085,-6.96516 1.71622,-0.75195 4.43402,-0.82165 6.58216,-0.16879 1.65608,0.50331 5.50977,2.93782 5.50977,3.48071 0,0.54282 -1.64151,4.11608 -1.89087,4.11608 -0.12351,0 -0.7904,-0.40435 -1.48196,-0.89856 -1.67554,-1.19738 -3.06832,-1.74727 -4.42556,-1.74727 -1.81601,0 -3.47811,1.44393 -3.97205,3.45067 -0.16389,0.66583 -0.12909,0.6817 3.48734,1.58981 l 3.65289,0.91727 -0.0879,1.84949 c -0.0484,1.01723 -0.10941,1.87098 -0.13566,1.89724 -0.0262,0.0262 -1.64003,-0.37112 -3.58615,-0.88306 -3.65949,-0.96264 -3.98737,-0.9483 -3.98737,0.17441 0,0.7621 0.40977,0.96976 3.43147,1.73898 l 3.04271,0.77456 0.0777,1.91823 c 0.0427,1.05503 -0.0168,1.91552 -0.13229,1.91221 -0.11552,-0.003 -1.48995,-0.35229 -3.0543,-0.77552 -3.25889,-0.88167 -3.30104,-0.85417 -2.21185,1.443 1.36735,2.88385 3.88193,4.39005 7.6447,4.57905 l 2.324,0.11673 -0.075,2.67919 -0.075,2.67919 -1.85208,0.0566 c -1.23837,0.0379 -2.37813,-0.11206 -3.43959,-0.45246 z m 8.07673,-54.25488 c 5.61517,-0.69835 7.4014,-1.55519 7.4014,-3.55041 0,-1.3101 -0.65238,-2.475193 -1.50588,-2.689409 -0.38638,-0.09698 -2.26394,0.07989 -4.17235,0.393039 -4.60022,0.75485 -9.32088,0.7609 -13.54392,0.0174 -4.07398,-0.717286 -4.58107,-0.702598 -5.31796,0.15403 -0.756,0.87884 -0.82825,2.96401 -0.13229,3.8177 1.29104,1.58361 11.04169,2.63239 17.271,1.85767 z m -10.8365,-14.123752 c 2.14641,-3.371066 5.47545,-9.584689 5.23942,-9.779334 -0.26472,-0.218304 -4.94437,-2.276414 -5.17603,-2.276414 -0.14662,0 -1.06356,0.422935 -2.03764,0.939857 -2.4883,1.320479 -4.59961,1.465946 -7.138161,0.491812 -1.084567,-0.416187 -0.123876,3.325728 1.878241,7.315806 1.758,3.503567 4.09875,7.155849 4.52987,7.067962 0.19622,-0.04 1.41316,-1.731862 2.7043,-3.759689 z"
         id="path1096" />
      <path
         style="fill:#3e6e91;stroke-width:0.264583"
         d="m 87.019954,211.15246 c -1.976855,-0.2881 -4.602813,-1.16478 -14.170765,-4.73089 -5.632902,-2.09947 -10.3015,-3.81721 -10.374665,-3.81721 -0.07317,0 -0.212882,0.53251 -0.310484,1.18337 -0.243735,1.62534 -1.596767,3.5398 -3.033095,4.29165 -1.118813,0.58565 -1.408468,0.61016 -7.14375,0.60459 -6.587951,-0.006 -7.310259,-0.14965 -8.807891,-1.74677 -1.60761,-1.71439 -1.535389,-0.4384 -1.535389,-27.12726 0,-24.20761 0.0043,-24.40788 0.552924,-25.54111 0.660859,-1.36516 2.012353,-2.54188 3.395263,-2.95621 1.31896,-0.39517 11.165593,-0.39992 12.58827,-0.006 2.172899,0.60154 4.095297,3.27549 4.099566,5.70227 l 0.0015,0.83884 1.785937,0.1609 c 0.982266,0.0885 2.215388,0.21571 2.740268,0.28271 l 0.954334,0.12182 0.159377,-4.69343 c 0.224038,-6.59756 1.176732,-10.96112 3.79749,-17.39342 2.14031,-5.25311 5.704067,-11.17766 9.787906,-16.27188 2.52781,-3.15321 8.284966,-8.99256 11.627037,-11.79305 1.550442,-1.29918 3.130825,-2.63817 3.511962,-2.97552 l 0.692979,-0.61337 -2.332157,0.16553 c -5.810435,0.41241 -10.347197,2.49071 -13.020293,5.9646 -1.325184,1.72217 -1.929741,2.03716 -3.032898,1.58022 -1.138115,-0.47142 -1.486259,-1.56334 -0.900221,-2.82344 0.632582,-1.36019 3.842666,-4.50643 5.722707,-5.6089 2.920243,-1.71246 8.524509,-3.21066 12.010013,-3.21066 0.781304,0 1.420551,-0.1039 1.420551,-0.23088 0,-0.43641 -2.33498,-2.382616 -3.746444,-3.122668 -1.365094,-0.71574 -1.556258,-0.742037 -5.646264,-0.776711 -4.346411,-0.03685 -5.629224,-0.2215 -8.186883,-1.178442 -4.225525,-1.580971 -5.610285,-3.275471 -3.995975,-4.889781 0.843801,-0.843802 1.500592,-0.819034 3.154817,0.118969 2.566115,1.455073 4.553781,1.877085 8.857475,1.880573 5.292632,0.0043 7.164366,0.556287 10.401056,3.067403 0.938643,0.728227 1.655908,1.103034 1.918229,1.002372 0.230449,-0.08843 0.418989,-0.226301 0.418989,-0.306382 0,-0.08008 -0.717974,-1.373952 -1.595499,-2.87527 -2.933448,-5.018712 -4.256664,-8.600313 -4.288141,-11.606888 -0.02315,-2.211459 0.674407,-3.836399 1.991709,-4.639599 1.133234,-0.690969 1.966444,-0.654274 3.987231,0.175599 l 1.69327,0.695376 2.44432,-1.125962 c 2.24843,-1.035729 2.57559,-1.115424 4.0824,-0.994471 1.2018,0.09647 2.12017,0.387321 3.44814,1.092044 0.99554,0.528305 1.99943,0.960555 2.23087,0.960555 0.23144,0 1.31483,-0.446485 2.40752,-0.992188 1.72769,-0.862822 2.2282,-0.992187 3.83881,-0.992187 1.62059,0 2.10835,0.12794 3.9024,1.023615 l 2.05033,1.023616 1.25697,-0.448851 c 2.99375,-1.069041 3.20137,-1.09513 4.24225,-0.533078 3.80031,2.052078 3.03952,7.791667 -2.19652,16.570961 l -1.94776,3.265819 0.63146,0.661458 c 1.06183,1.11229 1.76392,3.044828 1.76282,4.852258 l -10e-4,1.63003 2.23622,1.7198 c 3.6835,2.83279 5.39309,4.53794 5.39309,5.37902 0,0.90525 -1.07072,2.02931 -1.93301,2.02931 -0.6926,0 -1.28683,-0.41492 -5.08192,-3.54839 l -2.53514,-2.09317 -1.50882,0.70461 c -3.42286,1.59848 -7.67772,2.15595 -14.8279,1.94275 -5.36729,-0.16003 -7.89756,-0.5211 -10.80045,-1.54123 l -1.629967,-0.57279 -2.867956,2.3541 c -3.731572,3.06298 -9.167225,8.51445 -11.979666,12.01453 -8.545179,10.63448 -13.049942,22.00591 -12.94453,32.67604 0.04081,4.13135 0.01333,4.0756 2.34478,4.75552 2.918277,0.85106 5.460433,1.99126 9.358566,4.19748 6.997988,3.96063 6.583489,3.851 20.656653,5.46385 6.26564,0.71807 12.04692,1.44355 12.84728,1.61217 5.63114,1.18639 9.78958,6.47485 9.78958,12.4498 0,0.70775 0.0535,1.28681 0.11887,1.28681 0.0654,0 5.60718,-2.41746 12.31512,-5.37213 l 12.19624,-5.37213 1.08774,-1.81627 c 2.00295,-3.34443 3.56205,-7.8968 4.17073,-12.17801 0.38732,-2.72424 0.32715,-8.08872 -0.12463,-11.1125 -0.7193,-4.81423 -2.70009,-10.72314 -5.21519,-15.55748 -1.70192,-3.27131 -5.42048,-8.70682 -8.24982,-12.05897 -2.71753,-3.21967 -2.99641,-3.90905 -2.05279,-5.07438 0.74603,-0.9213 1.96379,-0.80363 3.11919,0.30142 2.9152,2.78814 8.14997,10.12034 10.7514,15.0592 3.90381,7.41145 5.69647,14.01452 5.93655,21.86667 0.20033,6.55204 -0.54469,11.23833 -2.54264,15.99357 -0.42225,1.00499 -0.74072,1.82726 -0.70771,1.82726 0.033,0 1.06325,-0.44604 2.28942,-0.9912 2.06722,-0.9191 2.41224,-0.99123 4.74294,-0.99146 2.89737,-2.6e-4 4.044,0.44794 5.81547,2.27332 1.52132,1.56761 2.22483,3.20192 2.34256,5.44195 0.11794,2.24404 -0.21109,3.44273 -1.4522,5.29047 -0.79619,1.18537 -1.60557,1.80148 -6.12671,4.6638 -2.86513,1.8139 -11.42302,7.23653 -19.01753,12.05028 -7.5945,4.81376 -14.64439,9.17339 -15.66642,9.68807 -1.02202,0.51469 -2.90458,1.26171 -4.18347,1.66005 l -2.32524,0.72425 -18.12396,0.0375 c -9.968177,0.0206 -18.481146,-0.0145 -18.917708,-0.0781 z m 36.380206,-4.16334 c 2.00108,-0.36231 4.99322,-1.37746 6.13091,-2.08006 0.33878,-0.20922 9.04513,-5.71403 19.34745,-12.23291 12.39575,-7.84353 18.9287,-12.12901 19.31458,-12.66997 0.90509,-1.26884 0.82786,-3.71274 -0.15818,-5.0055 -1.27218,-1.66792 -2.91901,-2.15248 -4.97393,-1.46354 -0.49465,0.16585 -9.26039,3.97585 -19.4794,8.46667 l -18.58003,8.16513 h -11.61294 c -11.34786,0 -11.62884,-0.0125 -12.31007,-0.54837 -0.87353,-0.68712 -0.95581,-2.10337 -0.16797,-2.89121 0.5115,-0.5115 0.88194,-0.52917 11.09629,-0.52917 h 10.56712 l 0.17879,-1.19224 c 0.5766,-3.84508 -1.30672,-7.56753 -4.69819,-9.28611 -1.23167,-0.62414 -2.50248,-0.82188 -13.55105,-2.10858 -7.015186,-0.81698 -12.981315,-1.6414 -14.051057,-1.94163 -2.252056,-0.63207 -4.604977,-1.66906 -7.450314,-3.28357 -7.794193,-4.42259 -13.350118,-6.26056 -18.934818,-6.26388 l -1.785937,-0.001 v 3.05474 c 0,2.89052 -0.03491,3.08964 -0.649432,3.70416 -0.357188,0.35719 -0.833438,0.64944 -1.058333,0.64944 -0.340942,0 -0.408902,0.43009 -0.408902,2.58782 v 2.58783 l 0.791194,0.29864 c 0.451246,0.17033 0.905974,0.60054 1.058333,1.00127 0.163502,0.43004 0.269614,4.87878 0.273517,11.46718 l 0.0064,10.76455 10.907683,4.04094 c 11.168234,4.13748 12.155529,4.47243 14.214977,4.82253 0.654844,0.11133 8.5725,0.21226 17.594789,0.2243 12.746,0.017 16.84668,-0.0582 18.38854,-0.33739 z M 120.09287,105.8956 c 4.01393,-0.60276 5.34111,-1.05313 5.81733,-1.97405 0.51317,-0.99236 0.50971,-2.20287 -0.009,-3.20627 -0.653,-1.262782 -1.37436,-1.380245 -4.43889,-0.722822 -4.03182,0.864932 -11.30733,0.859752 -15.48633,-0.01103 -2.99258,-0.623567 -3.00736,-0.623999 -3.70417,-0.108323 -0.38478,0.284755 -0.86339,0.983205 -1.06357,1.552105 -0.5103,1.45022 0.0801,2.87186 1.42628,3.43433 3.11066,1.29972 12.13604,1.83532 17.45852,1.03606 z m 0.92604,-9.922911 c 1.84779,-0.37628 3.16726,-0.782785 3.35988,-1.035113 0.95423,-1.250089 3.75609,-6.250462 4.59857,-8.206879 0.96056,-2.230654 1.75365,-5.206594 1.46458,-5.49566 -0.0815,-0.08151 -0.88291,0.05795 -1.78088,0.309912 -2.06206,0.578583 -3.32331,0.403117 -5.6972,-0.792598 -0.99696,-0.502161 -2.0626,-0.913388 -2.3681,-0.913836 -0.30549,-4.5e-4 -1.37705,0.438514 -2.38125,0.975471 -1.59368,0.852163 -2.06338,0.978309 -3.6944,0.992188 -1.66237,0.01414 -2.07769,-0.0936 -3.76313,-0.976287 -1.042,-0.545703 -2.15793,-0.992187 -2.47984,-0.992187 -0.32191,0 -1.40278,0.423047 -2.40192,0.940105 -2.34625,1.214183 -3.82782,1.392294 -5.85861,0.704303 l -1.555414,-0.526947 0.136509,1.505465 c 0.223324,2.462847 2.251935,6.927242 5.344495,11.761678 l 0.92014,1.438426 2.45589,0.420303 c 3.72936,0.638244 3.81003,0.644562 7.35068,0.575643 2.19567,-0.04274 4.32998,-0.272635 6.35,-0.683987 z m -9.03246,64.387071 c -3.66258,-0.739 -7.57022,-3.45838 -9.7389,-6.77745 -0.58019,-0.88796 -1.38625,-2.66302 -1.79125,-3.94459 l -0.736347,-2.33013 -1.25677,-5.7e-4 -1.256771,-5.7e-4 v -1.7198 -1.71979 h 1.148032 1.148035 l -0.03314,-0.99218 c -0.03242,-0.97058 -0.05742,-0.99396 -1.148033,-1.07355 l -1.11489,-0.0814 v -1.54398 c 0,-1.69299 0.156758,-1.86518 1.698053,-1.86518 0.831038,0 0.876943,-0.0576 1.318161,-1.65364 0.59708,-2.15989 1.40856,-3.51429 2.99416,-4.99744 3.28786,-3.0754 7.82871,-3.04782 12.50663,0.076 0.87523,0.58446 1.59132,1.22029 1.59132,1.41297 0,0.39743 -1.50481,3.83923 -1.67857,3.83923 -0.0623,0 -0.81768,-0.47043 -1.67871,-1.0454 -2.94884,-1.96916 -5.22901,-2.07223 -6.98548,-0.31575 -0.93863,0.93862 -1.76059,2.88987 -1.35979,3.22795 0.10625,0.0896 1.14568,0.36291 2.30985,0.60732 1.16416,0.24441 2.74174,0.63011 3.50573,0.85711 l 1.38906,0.41274 v 1.69989 c 0,0.93494 -0.0655,1.69989 -0.14558,1.69989 -0.0801,0 -1.47906,-0.34631 -3.10886,-0.76956 -4.89366,-1.27088 -4.41848,-1.28143 -4.41848,0.098 0,1.08248 0.0661,1.2056 0.72761,1.35558 1.9411,0.44007 3.98669,0.9562 4.7625,1.20163 0.85473,0.2704 0.85989,0.28241 0.85989,2.00215 0,1.991 0.37667,1.89925 -3.49021,0.85016 -1.26477,-0.34314 -2.37823,-0.54523 -2.47435,-0.44911 -0.0961,0.0961 0.035,0.80638 0.29143,1.57835 0.33645,1.01296 0.87781,1.81304 1.94518,2.87481 1.68825,1.67937 3.39093,2.36746 6.48021,2.61877 l 1.82622,0.14857 -0.0581,2.37705 c -0.032,1.30738 -0.0883,2.40724 -0.12523,2.44415 -0.24169,0.24169 -2.48985,0.18278 -3.90258,-0.10226 z"
         id="path1094" />
      <path
         style="fill:#040303;stroke-width:0.264583"
         d="m 86.575036,210.92659 c -2.161373,-0.33663 -7.384812,-2.15552 -20.854039,-7.26171 -1.819011,-0.68958 -3.396589,-1.20328 -3.505729,-1.14154 -0.109141,0.0617 -0.198438,0.51419 -0.198438,1.00545 0,1.22429 -0.340426,2.01719 -1.369069,3.18875 -1.58483,1.80503 -2.260325,1.95985 -8.579469,1.96643 -3.486071,0.004 -5.920704,-0.10729 -6.482292,-0.29532 -1.477097,-0.49455 -2.637729,-1.53888 -3.306514,-2.9752 l -0.630402,-1.35388 -0.0011,-23.94479 c -7.52e-4,-16.20388 0.09044,-24.2745 0.282084,-24.96468 0.155756,-0.56094 0.766931,-1.54468 1.358166,-2.1861 1.651373,-1.79153 2.766848,-2.02056 9.285312,-1.90651 4.846607,0.0848 5.440442,0.14594 6.400585,0.659 1.992967,1.06498 3.042708,2.7367 3.042708,4.84554 0,0.84478 0.122901,1.3822 0.330729,1.44619 0.181901,0.056 1.539852,0.1712 3.017668,0.25597 l 2.686939,0.15413 -0.140779,-2.05391 c -0.186434,-2.72001 0.313571,-7.67783 1.153054,-11.4332 3.040303,-13.60058 12.538267,-27.49546 26.25364,-38.40729 1.158695,-0.92184 2.066144,-1.74173 2.016551,-1.82198 -0.04959,-0.0802 -1.16866,-0.0597 -2.486819,0.0456 -5.917216,0.47278 -10.774719,2.84294 -13.275431,6.47761 -0.703599,1.02264 -0.911683,1.1563 -1.800172,1.1563 -2.201791,0 -2.490467,-1.75888 -0.69007,-4.20454 2.886003,-3.92036 8.288768,-6.50042 15.147709,-7.2337 1.63711,-0.17503 2.976563,-0.42975 2.976563,-0.56605 0,-0.442603 -2.214504,-2.316431 -3.571875,-3.022386 -1.240158,-0.644994 -1.637398,-0.699462 -6.35,-0.870691 -4.442311,-0.161408 -5.252053,-0.261853 -6.961068,-0.863492 -2.666325,-0.938647 -4.791773,-2.19915 -5.107225,-3.028854 -0.356431,-0.937485 0.14293,-2.043791 1.101796,-2.440966 0.687258,-0.284673 0.964227,-0.21166 2.821572,0.743809 2.991752,1.539036 3.902258,1.72314 8.806384,1.780645 3.704111,0.04343 4.600204,0.136356 5.913725,0.613242 1.88966,0.686057 3.13907,1.437394 4.560705,2.742595 0.981091,0.900735 1.128776,0.957958 1.587505,0.615097 0.49795,-0.372187 0.49795,-0.391523 -5.3e-4,-1.251058 -2.199525,-3.792279 -3.174898,-5.628959 -3.856304,-7.261613 -2.086856,-5.000136 -2.135576,-8.473674 -0.145901,-10.402142 0.761433,-0.738011 1.116356,-0.890103 2.053105,-0.879797 0.622893,0.0069 1.668315,0.262208 2.32316,0.567454 1.63537,0.762303 2.11231,0.714989 4.28997,-0.425574 1.65336,-0.865952 2.11531,-0.989525 3.63085,-0.971264 1.45211,0.0175 2.04951,0.179973 3.6481,0.992187 1.05134,0.534196 2.17355,0.971265 2.49375,0.971265 0.3202,0 1.48403,-0.446096 2.5863,-0.991325 2.78801,-1.37908 4.38674,-1.379245 7.21331,-7.43e-4 2.34863,1.145412 2.64852,1.177577 4.3158,0.462901 3.43733,-1.473413 5.68854,0.228896 5.68854,4.301538 0,3.150932 -1.53359,7.133934 -4.78233,12.420545 l -1.581,2.572725 0.89492,1.266658 c 1.14407,1.619304 1.49966,2.699924 1.49966,4.557454 v 1.49205 l 2.71198,2.16294 c 4.19774,3.34792 4.697,3.86724 4.6923,4.88083 -0.002,0.48036 -0.0915,1.00439 -0.19844,1.1645 -0.25818,0.38667 -1.25199,0.89951 -1.74309,0.89951 -0.21608,0 -1.97522,-1.30011 -3.9092,-2.88913 l -3.51634,-2.88914 -1.06913,0.62449 c -2.75103,1.60691 -8.33169,2.39136 -15.35662,2.15862 -5.05812,-0.16757 -9.06078,-0.80979 -11.05639,-1.77396 l -1.051236,-0.5079 -2.809729,2.29621 c -3.54334,2.89573 -9.611849,8.95905 -12.251711,12.24122 -6.157584,7.65581 -10.408091,16.15678 -12.122044,24.24396 -0.616918,2.91089 -1.019637,10.89747 -0.603638,11.97111 0.195061,0.50344 0.770075,0.80088 2.887548,1.49367 2.679488,0.87668 6.151242,2.50002 9.454147,4.42064 2.709063,1.5753 5.15198,2.73786 6.783257,3.2281 0.800365,0.24053 7.014776,1.08645 13.809796,1.87981 13.54591,1.58158 14.16681,1.71717 16.82529,3.67423 2.94571,2.16851 4.69561,5.48086 5.00328,9.47061 0.13572,1.75999 0.22676,2.06124 0.58361,1.93111 0.23255,-0.0848 5.76484,-2.5016 12.29397,-5.37068 l 11.87116,-5.21652 1.16445,-1.98437 c 1.38337,-2.35746 2.55158,-5.28659 3.48222,-8.73125 0.62979,-2.33111 0.67996,-2.93601 0.69129,-8.33438 0.0115,-5.4835 -0.031,-6.00362 -0.73299,-8.97502 -2.16356,-9.15749 -6.48048,-17.2462 -13.62226,-25.52441 -1.41046,-1.6349 -1.89273,-2.38997 -1.89273,-2.96338 0,-1.04746 0.83989,-1.82781 1.96728,-1.82781 0.78298,0 1.11117,0.22919 2.36791,1.65365 7.3845,8.36997 12.59451,17.86684 14.74936,26.88527 2.0669,8.65039 1.5906,17.63214 -1.32282,24.9449 -0.42649,1.07051 -0.69039,1.97871 -0.58645,2.01821 0.10394,0.0395 0.95523,-0.27204 1.89175,-0.69231 4.5938,-2.06152 8.20931,-1.66377 10.84239,1.19279 1.66649,1.80793 2.22879,3.26251 2.23349,5.7777 0.003,1.77044 -0.11321,2.35523 -0.71236,3.57518 -0.39398,0.80218 -1.10835,1.82689 -1.5875,2.27714 -0.79564,0.74764 -35.94853,23.14305 -39.17176,24.95577 -1.90793,1.073 -5.73414,2.30353 -8.21908,2.6433 -3.19086,0.43628 -33.538176,0.33142 -36.475255,-0.12604 z m 39.074084,-4.32003 c 1.01864,-0.34258 2.44739,-0.92374 3.175,-1.29145 1.73209,-0.87536 37.91307,-23.77381 38.72045,-24.50564 2.06409,-1.87097 1.73783,-5.49257 -0.63578,-7.05724 -1.14433,-0.75434 -2.95999,-0.66828 -5.23226,0.24799 -1.04289,0.42053 -9.6246,4.171 -19.07048,8.33437 l -17.1743,7.56977 h -11.99601 c -11.64322,0 -12.01156,-0.0156 -12.52516,-0.52917 -0.69266,-0.69265 -0.67278,-1.7974 0.0461,-2.56263 l 0.57529,-0.61237 h 10.6695 10.6695 v -2.06864 c 0,-2.53404 -0.53307,-4.42567 -1.66923,-5.92332 -1.0067,-1.32703 -2.99755,-2.74024 -4.37455,-3.10531 -0.53222,-0.1411 -6.20642,-0.86033 -12.60934,-1.59829 -6.939224,-0.79977 -12.487743,-1.5691 -13.736267,-1.9046 -1.981046,-0.53233 -4.821655,-1.87339 -11.328611,-5.34827 -4.815466,-2.57159 -9.165505,-3.84518 -14.556474,-4.26182 l -2.315104,-0.17891 v 2.76239 c 0,3.16023 -0.279421,4.23013 -1.216244,4.65697 -0.958835,0.43688 -1.450224,0.37391 -2.140141,-0.27423 -0.605479,-0.56882 -0.612365,-0.64334 -0.612365,-6.62661 v -6.05132 l -0.649432,-0.64943 c -0.644786,-0.64479 -0.686067,-0.64944 -5.770943,-0.64944 -4.788407,0 -5.159173,0.0351 -5.700568,0.53948 l -0.579057,0.53947 v 23.74332 c 0,21.06134 0.04652,23.80975 0.411878,24.33136 0.402702,0.57494 0.53195,0.58804 5.80163,0.58804 h 5.389752 l 0.54837,-0.69714 c 0.538739,-0.6849 0.54837,-0.93781 0.54837,-14.40059 v -13.70345 l 0.697139,-0.54837 c 0.907535,-0.71387 1.487442,-0.6921 2.396961,0.09 l 0.742358,0.63832 0.07696,11.0997 0.07696,11.0997 11.435784,4.25262 c 6.289683,2.33894 12.02958,4.3682 12.755329,4.50946 0.788324,0.15345 8.562557,0.23901 19.311205,0.21253 l 17.99167,-0.0443 z m -4.42513,-100.85588 c 4.40139,-0.74694 5.08659,-1.22631 5.08659,-3.55865 0,-1.0164 -0.13918,-1.36754 -0.80652,-2.03489 -0.89859,-0.898591 -0.78279,-0.89745 -5.01432,-0.0494 -3.59469,0.72044 -10.40966,0.64853 -14.36146,-0.151544 l -3.11667,-0.630994 -0.71979,0.534348 c -1.02317,0.75958 -1.42136,1.64333 -1.27908,2.83881 0.19218,1.61467 0.9768,2.18721 3.85967,2.81641 5.16666,1.12764 10.6323,1.20649 16.35158,0.23589 z m -0.0326,-9.759472 2.95061,-0.606958 1.23551,-1.950374 c 2.87111,-4.532309 5.16639,-9.753796 5.16639,-11.752905 0,-0.700441 -0.0776,-0.808386 -0.46302,-0.643755 -1.33384,0.569801 -3.2132,0.915293 -4.16719,0.766072 -0.58208,-0.09105 -1.86215,-0.570554 -2.84459,-1.065566 -0.98244,-0.495012 -2.08699,-0.900022 -2.45457,-0.900022 -0.36757,0 -1.50642,0.439043 -2.53078,0.975651 -2.61063,1.36758 -4.35643,1.36758 -7.23616,0 -1.12995,-0.536608 -2.35502,-0.975651 -2.72238,-0.975651 -0.36737,0 -1.28095,0.350732 -2.03019,0.779404 -2.02276,1.157303 -3.58811,1.437947 -5.41241,0.970362 -0.820506,-0.210305 -1.670427,-0.422146 -1.888708,-0.470757 -0.554339,-0.123452 -0.424903,1.531363 0.292923,3.744896 0.635476,1.959606 2.884385,6.372112 4.596795,9.019233 1.1068,1.710932 1.21454,1.798175 2.56458,2.07661 4.76461,0.982664 10.26981,0.995102 14.94319,0.03376 z m -9.40424,64.263912 c -1.60062,-0.32217 -4.37847,-1.66077 -6.02294,-2.90236 -2.32692,-1.75684 -4.66732,-5.21362 -5.37174,-7.93408 -0.16893,-0.65241 -0.36762,-1.39455 -0.441522,-1.64921 -0.104542,-0.36023 -0.424098,-0.46302 -1.43946,-0.46302 h -1.305086 v -1.5875 -1.5875 h 1.190625 1.190625 v -1.17541 -1.17542 l -1.124479,-0.0814 -1.12448,-0.0814 -0.07935,-1.52136 -0.07935,-1.52135 h 1.283115 1.283115 l 0.566097,-1.91823 c 1.50514,-5.10021 5.24147,-7.73134 10.01823,-7.05487 0.91331,0.12934 2.11423,0.44217 2.66873,0.69516 1.1496,0.52453 3.94253,2.33233 4.16873,2.69833 0.0829,0.13409 -0.23717,1.09348 -0.7112,2.13199 l -0.86187,1.8882 -0.92604,-0.70425 c -2.50029,-1.90148 -5.35186,-2.49567 -7.03918,-1.46677 -0.98958,0.60344 -1.93297,2.05658 -2.13221,3.28435 -0.14391,0.88678 -0.13073,0.9009 1.00706,1.07908 0.63408,0.0993 2.31373,0.49071 3.73256,0.86979 l 2.57969,0.68925 v 1.71041 c 0,1.3568 -0.0765,1.68106 -0.37016,1.56838 -1.20254,-0.46146 -7.06819,-1.77934 -7.29517,-1.63906 -0.14969,0.0925 -0.27217,0.63517 -0.27217,1.20589 0,0.91637 0.0851,1.05661 0.7276,1.19962 0.40018,0.0891 1.83955,0.44853 3.19858,0.79879 1.35904,0.35027 2.5199,0.63685 2.57969,0.63685 0.0598,0 0.10871,0.78682 0.10871,1.74848 0,1.68561 -0.0214,1.74255 -0.59531,1.58386 -0.32742,-0.0905 -1.66688,-0.45 -2.97656,-0.79882 l -2.38125,-0.63421 -0.0902,0.54875 c -0.15531,0.94476 1.56407,3.92427 2.81333,4.87521 1.42932,1.088 4.13754,1.93715 6.17822,1.93715 h 1.56955 l -0.0761,2.4474 -0.0761,2.44739 -1.45521,0.0428 c -0.80037,0.0235 -1.97809,-0.0624 -2.61717,-0.19104 z"
         id="path1092" />
    </g>
  </g>
</svg>
