<?xml version="1.0" encoding="UTF-8" standalone="no"?>
<svg
   data-name="Layer 1"
   id="Layer_1"
   viewBox="0 0 64 64"
   version="1.1"
   sodipodi:docname="block_simple.svg"
   width="64"
   height="64"
   inkscape:version="1.1.1 (3bf5ae0d25, 2021-09-20)"
   xmlns:inkscape="http://www.inkscape.org/namespaces/inkscape"
   xmlns:sodipodi="http://sodipodi.sourceforge.net/DTD/sodipodi-0.dtd"
   xmlns="http://www.w3.org/2000/svg"
   xmlns:svg="http://www.w3.org/2000/svg">
  <defs
     id="defs21">
    <inkscape:path-effect
       effect="fill_between_many"
       method="originald"
       linkedpaths="#path41117,0,1|#path41114,0,1|#path41111,0,1"
       id="path-effect41155" />
  </defs>
  <sodipodi:namedview
     id="namedview19"
     pagecolor="#ffffff"
     bordercolor="#666666"
     borderopacity="1.0"
     inkscape:pageshadow="2"
     inkscape:pageopacity="0.0"
     inkscape:pagecheckerboard="0"
     showgrid="false"
     fit-margin-top="0"
     fit-margin-left="0"
     fit-margin-right="0"
     fit-margin-bottom="0"
     inkscape:zoom="6.359375"
     inkscape:cx="24.29484"
     inkscape:cy="25.710074"
     inkscape:window-width="1920"
     inkscape:window-height="1007"
     inkscape:window-x="0"
     inkscape:window-y="0"
     inkscape:window-maximized="1"
     inkscape:current-layer="Layer_1" />
  <g
     id="g78976">
    <path
       d="m 29.061749,26.695579 a 2.5037162,2.5511825 0 1 0 -2.873824,0 4.40018,4.4836002 0 0 0 -2.590761,2.46598 4.40018,4.4836002 0 0 0 -2.592816,-2.46598 2.5037162,2.5511825 0 1 0 -2.873825,0 4.3864723,4.4696326 0 0 0 -2.940307,4.21193 0.34954701,0.35617385 0 1 0 0.699094,0 3.6784683,3.748206 0 0 1 7.356251,0 0.34954701,0.35617385 0 1 0 0.699094,0 3.6784683,3.748206 0 0 1 7.356251,0 0.34954701,0.35617385 0 1 0 0.699094,0 4.3864723,4.4696326 0 0 0 -2.938251,-4.21193 z M 17.765212,24.609518 a 1.8039367,1.8381364 0 1 1 1.804623,1.838136 1.8066783,1.8409299 0 0 1 -1.804623,-1.838136 z m 8.055346,0 a 1.8039367,1.8381364 0 1 1 1.803936,1.838136 1.8059929,1.8402316 0 0 1 -1.803936,-1.838136 z"
       id="path2"
       style="fill:#0000ff;stroke-width:0.0691853" />
    <path
       d="m 28.196792,10.716642 a 0.23782905,0.24233789 0 0 0 0.02125,-0.03073 0.27415452,0.27935204 0 0 0 0.01919,-0.03771 4.7092893,4.7985697 0 1 0 -0.04044,0.06984 z m 0,-2.5092795 A 3.9862067,4.0617787 0 0 1 27.78556,10.004295 L 24.534773,8.006229 V 4.1379017 a 4.0149929,4.0911106 0 0 1 3.660648,4.0694608 z m -8.01902,0 A 4.0143076,4.0904122 0 0 1 23.83842,4.1379017 V 12.279617 A 4.0149929,4.0911106 0 0 1 20.175031,8.2073625 Z m 4.357001,4.0722545 V 8.8379997 l 2.888903,1.7759803 a 4.0122514,4.0883171 0 0 1 -2.888903,1.665637 z"
       id="path4"
       style="fill:#0000ff;stroke-width:0.0691853" />
    <path
       d="M 18.695282,5.262992 A 0.34954701,0.35617385 0 0 0 18.345735,4.9068182 H 14.79749 a 0.34954701,0.35617385 0 1 0 0,0.7123477 h 3.548245 A 0.34954701,0.35617385 0 0 0 18.695282,5.262992 Z"
       id="path6"
       style="fill:#0000ff;stroke-width:0.0691853" />
    <path
       d="M 17.88447,7.6912596 A 0.34954701,0.35617385 0 0 0 17.534923,7.3350858 H 14.79749 a 0.34954701,0.35617385 0 1 0 0,0.7123477 h 2.737433 A 0.34954701,0.35617385 0 0 0 17.88447,7.6912596 Z"
       id="path8"
       style="fill:#0000ff;stroke-width:0.0691853" />
    <path
       d="m 14.79749,9.7654485 a 0.34954701,0.35617385 0 0 0 0,0.7123475 h 2.12881 a 0.34954701,0.35617385 0 1 0 0,-0.7123475 z"
       id="path10"
       style="fill:#0000ff;stroke-width:0.0691853" />
    <path
       d="m 20.228491,17.35684 a 1.5112768,1.5399281 0 0 0 -1.843689,-2.439441 l -3.109598,2.347953 -2.056159,-2.822154 C 12.186168,13.026884 11.076528,12.290791 9.5549699,12.062421 A 3.3145281,3.3773662 0 1 0 5.6688296,12.042861 3.9067019,3.9807666 0 0 0 2.4344917,15.95379 v 6.731685 a 1.4612436,1.4889464 0 0 0 1.476322,1.481963 1.4393112,1.4665982 0 0 0 0.753925,-0.2158 v 6.959358 a 0.34954701,0.35617385 0 1 0 0.699094,0 V 17.195514 a 0.34954701,0.35617385 0 1 0 -0.699094,0 v 5.489966 a 0.7655765,0.78009057 0 0 1 -1.531153,0 v -6.72959 a 3.2028102,3.2635302 0 0 1 3.1980125,-3.257245 h 2.0856305 c 2.2042023,0 3.2898543,0.868785 4.2391143,2.17266 l 2.265887,3.107792 a 0.34954701,0.35617385 0 0 0 0.48868,0.07333 l 3.389921,-2.560262 a 0.80944122,0.8247869 0 0 1 1.131573,0.184373 0.79710427,0.81221606 0 0 1 -0.140504,1.126487 l -3.413224,2.782346 a 2.0218896,2.0602213 0 0 1 -2.795691,-0.282844 l -1.965002,-2.384968 a 0.34954701,0.35617385 0 0 0 -0.616848,0.229069 v 13.760881 a 0.34954701,0.35617385 0 0 0 0.699094,0 V 18.122265 l 1.348155,1.635606 a 2.7271521,2.7788544 0 0 0 3.769625,0.381316 z M 5.0081172,9.3177869 A 2.6161195,2.6657168 0 1 1 7.6242367,11.983504 2.6195464,2.6692087 0 0 1 5.0081172,9.3177869 Z"
       id="path12"
       style="fill:#0000ff;stroke-width:0.0691853" />
    <path
       d="m 8.1560965,22.678497 a 0.34954701,0.35617385 0 0 0 -0.349547,0.356173 v 7.872839 a 0.34954701,0.35617385 0 0 0 0.699094,0 V 23.03467 a 0.34954701,0.35617385 0 0 0 -0.349547,-0.356173 z"
       id="path14"
       style="fill:#0000ff;stroke-width:0.0691853" />
    <path
       d="M 29.960291,19.060888 H 19.825484 a 0.34954701,0.35617385 0 0 0 0,0.712347 h 10.48641 a 0.34954701,0.35617385 0 0 0 0.349547,-0.356173 V 0.35617343 A 0.34954701,0.35617385 0 0 0 30.311894,-4.183e-7 H 0.34954653 A 0.34954701,0.35617385 0 0 0 -4.798e-7,0.35617343 V 14.406184 a 0.34954701,0.35617385 0 1 0 0.6990940298,0 V 0.71234728 H 29.960291 Z"
       id="path16"
       style="fill:#0000ff;stroke-width:0.0691853" />
    <path
       d="m 61.061748,26.695579 a 2.5037162,2.5511825 0 1 0 -2.873825,0 4.40018,4.4836002 0 0 0 -2.59076,2.46598 4.40018,4.4836002 0 0 0 -2.592817,-2.46598 2.5037162,2.5511825 0 1 0 -2.873824,0 4.3864723,4.4696326 0 0 0 -2.940308,4.21193 0.34954701,0.35617385 0 1 0 0.699094,0 3.6784683,3.748206 0 0 1 7.356251,0 0.34954701,0.35617385 0 1 0 0.699094,0 3.6784683,3.748206 0 0 1 7.356252,0 0.34954701,0.35617385 0 1 0 0.699094,0 4.3864723,4.4696326 0 0 0 -2.938251,-4.21193 z M 49.765211,24.609518 a 1.8039367,1.8381364 0 1 1 1.804622,1.838136 1.8066783,1.8409299 0 0 1 -1.804622,-1.838136 z m 8.055345,0 a 1.8039367,1.8381364 0 1 1 1.803937,1.838136 1.8059929,1.8402316 0 0 1 -1.803937,-1.838136 z"
       id="path2-6"
       style="fill:#d40000;stroke-width:0.0691853" />
    <path
       d="M 58.81224,5.262992 A 1.0175557,0.35617385 0 0 0 57.794685,4.9068182 H 47.465497 a 1.0175557,0.35617385 0 1 0 0,0.7123477 H 57.794685 A 1.0175557,0.35617385 0 0 0 58.81224,5.262992 Z"
       id="path6-5"
       style="fill:#d40000;stroke-width:0.118043" />
    <path
       d="M 60.57856,7.6912596 A 1.5618535,0.35617385 0 0 0 59.016707,7.3350858 H 46.785248 a 1.5618535,0.35617385 0 1 0 0,0.7123477 H 59.016707 A 1.5618535,0.35617385 0 0 0 60.57856,7.6912596 Z"
       id="path8-3"
       style="fill:#d40000;stroke-width:0.146245" />
    <path
       d="m 46.04299,9.7654485 a 0.81850438,0.35617385 0 0 0 0,0.7123475 h 4.984852 a 0.81850438,0.35617385 0 1 0 0,-0.7123475 z"
       id="path10-5"
       style="fill:#d40000;stroke-width:0.10587" />
    <path
       d="M 52.228489,17.35684 A 1.5112768,1.5399281 0 0 0 50.3848,14.917399 l -3.109598,2.347953 -2.056159,-2.822154 c -1.032877,-1.416314 -2.142517,-2.152407 -3.664075,-2.380777 a 3.3145281,3.3773662 0 1 0 -3.88614,-0.01956 3.9067019,3.9807666 0 0 0 -3.234338,3.910929 v 6.731685 a 1.4612436,1.4889464 0 0 0 1.476322,1.481963 1.4393112,1.4665982 0 0 0 0.753925,-0.2158 v 6.959358 a 0.34954701,0.35617385 0 1 0 0.699094,0 V 17.195514 a 0.34954701,0.35617385 0 1 0 -0.699094,0 v 5.489966 a 0.7655765,0.78009057 0 0 1 -1.531153,0 v -6.72959 a 3.2028102,3.2635302 0 0 1 3.198012,-3.257245 h 2.085631 c 2.204202,0 3.289854,0.868785 4.239114,2.17266 l 2.265887,3.107792 a 0.34954701,0.35617385 0 0 0 0.488681,0.07333 l 3.38992,-2.560262 a 0.80944122,0.8247869 0 0 1 1.131573,0.184373 0.79710427,0.81221606 0 0 1 -0.140504,1.126487 l -3.413224,2.782346 a 2.0218896,2.0602213 0 0 1 -2.795691,-0.282844 l -1.965002,-2.384968 a 0.34954701,0.35617385 0 0 0 -0.616848,0.229069 v 13.760881 a 0.34954701,0.35617385 0 0 0 0.699094,0 V 18.122265 l 1.348155,1.635606 a 2.7271521,2.7788544 0 0 0 3.769625,0.381316 z M 37.008115,9.3177869 a 2.6161195,2.6657168 0 1 1 2.61612,2.6657171 2.6195464,2.6692087 0 0 1 -2.61612,-2.6657171 z"
       id="path12-6"
       style="fill:#d40000;stroke-width:0.0691853" />
    <path
       d="m 40.156095,22.678497 a 0.34954701,0.35617385 0 0 0 -0.349547,0.356173 v 7.872839 a 0.34954701,0.35617385 0 0 0 0.699094,0 V 23.03467 a 0.34954701,0.35617385 0 0 0 -0.349547,-0.356173 z"
       id="path14-2"
       style="fill:#d40000;stroke-width:0.0691853" />
    <path
       d="M 61.960289,19.060888 H 51.825482 a 0.34954701,0.35617385 0 0 0 0,0.712347 h 10.48641 a 0.34954701,0.35617385 0 0 0 0.349547,-0.356173 V 0.35617343 A 0.34954701,0.35617385 0 0 0 62.311892,-4.183e-7 H 32.349545 A 0.34954701,0.35617385 0 0 0 31.999998,0.35617343 V 14.406184 a 0.34954701,0.35617385 0 1 0 0.699094,0 V 0.71234728 h 29.261197 z"
       id="path16-9"
       style="fill:#d40000;stroke-width:0.0691853" />
    <path
       d="m 29.061749,59.428403 a 2.5037162,2.5511825 0 1 0 -2.873824,0 4.40018,4.4836002 0 0 0 -2.590761,2.46598 4.40018,4.4836002 0 0 0 -2.592816,-2.46598 2.5037162,2.5511825 0 1 0 -2.873825,0 4.3864723,4.4696326 0 0 0 -2.940307,4.21193 0.34954701,0.35617385 0 1 0 0.699094,0 3.6784683,3.748206 0 0 1 7.356251,0 0.34954701,0.35617385 0 1 0 0.699094,0 3.6784683,3.748206 0 0 1 7.356251,0 0.34954701,0.35617385 0 1 0 0.699094,0 4.3864723,4.4696326 0 0 0 -2.938251,-4.21193 z M 17.765212,57.342342 a 1.8039367,1.8381364 0 1 1 1.804623,1.838136 1.8066783,1.8409299 0 0 1 -1.804623,-1.838136 z m 8.055346,0 a 1.8039367,1.8381364 0 1 1 1.803936,1.838136 1.8059929,1.8402316 0 0 1 -1.803936,-1.838136 z"
       id="path2-2"
       style="fill:#008000;stroke-width:0.0691853" />
    <path
       d="m 20.228491,50.089664 a 1.5112768,1.5399281 0 0 0 -1.843689,-2.439441 l -3.109598,2.347954 -2.056159,-2.822154 C 12.186168,45.759708 11.076528,45.023615 9.5549699,44.795245 A 3.3145281,3.3773662 0 1 0 5.6688296,44.77569 3.9067019,3.9807666 0 0 0 2.4344917,48.686619 v 6.731686 a 1.4612436,1.4889464 0 0 0 1.476322,1.481962 1.4393112,1.4665982 0 0 0 0.753925,-0.215799 v 6.959357 a 0.34954701,0.35617385 0 1 0 0.699094,0 V 49.928339 a 0.34954701,0.35617385 0 1 0 -0.699094,0 v 5.489966 a 0.7655765,0.78009057 0 0 1 -1.531153,0 v -6.729591 a 3.2028102,3.2635302 0 0 1 3.1980125,-3.257245 h 2.0856305 c 2.2042023,0 3.2898543,0.868785 4.2391143,2.172661 l 2.265887,3.107791 a 0.34954701,0.35617385 0 0 0 0.48868,0.07333 l 3.389921,-2.560261 a 0.80944122,0.8247869 0 0 1 1.131573,0.184372 0.79710427,0.81221606 0 0 1 -0.140504,1.126487 l -3.413224,2.782346 a 2.0218896,2.0602213 0 0 1 -2.795691,-0.282844 l -1.965002,-2.384968 a 0.34954701,0.35617385 0 0 0 -0.616848,0.229069 v 13.760881 a 0.34954701,0.35617385 0 0 0 0.699094,0 V 50.855089 l 1.348155,1.635606 a 2.7271521,2.7788544 0 0 0 3.769625,0.381316 z M 5.0081172,42.050611 a 2.6161195,2.6657168 0 1 1 2.6161195,2.665717 2.6195464,2.6692087 0 0 1 -2.6161195,-2.665717 z"
       id="path12-62"
       style="fill:#008000;stroke-width:0.0691853" />
    <path
       d="m 8.1560965,55.411321 a 0.34954701,0.35617385 0 0 0 -0.349547,0.356174 v 7.872838 a 0.34954701,0.35617385 0 0 0 0.699094,0 v -7.872838 a 0.34954701,0.35617385 0 0 0 -0.349547,-0.356174 z"
       id="path14-6"
       style="fill:#008000;stroke-width:0.0691853" />
    <path
       d="M 29.960291,51.793712 H 19.825484 a 0.34954716,0.356174 0 0 0 0,0.712348 h 10.48641 a 0.34954701,0.35617385 0 0 0 0.349547,-0.356174 V 33.088998 A 0.34954701,0.35617385 0 0 0 30.311894,32.732824 H 0.34954653 A 0.34954701,0.35617385 0 0 0 -4.798e-7,33.088998 v 14.05001 a 0.34954701,0.35617385 0 1 0 0.6990940298,0 V 33.445171 H 29.960291 Z"
       id="path16-1"
       style="fill:#008000;stroke-width:0.0691853" />
    <text
       xml:space="preserve"
       style="font-style:normal;font-weight:normal;font-size:13.1798px;line-height:1.25;font-family:sans-serif;fill:#020101;fill-opacity:1;stroke:none;stroke-width:0.494241"
       x="33.476711"
       y="51.570213"
       id="text8246"
       transform="scale(1.0116509,0.9884833)"><tspan
         sodipodi:role="line"
         id="tspan8244"
         x="33.476711"
         y="51.570213"
         style="font-size:13.1798px;fill:#020101;fill-opacity:1;stroke-width:0.494241">+ ...</tspan></text>
    <path
       inkscape:original-d="M 0,0"
       inkscape:path-effect="#path-effect41155"
       d="M 0,0"
       id="path41157" />
    <g
       stroke-width="9.5"
       stroke="#000000"
       fill="none"
       id="g18"
       transform="matrix(0.05,0,0,0.05,11.927889,34.362097)">
      <circle
         cx="54"
         cy="54"
         r="49.25"
         stroke="#0081c8"
         id="circle2" />
      <circle
         cx="171"
         cy="54"
         r="49.25"
         id="circle4" />
      <circle
         cx="288"
         cy="54"
         r="49.25"
         stroke="#ee334e"
         id="circle6" />
      <circle
         cx="112.5"
         cy="104"
         r="49.25"
         stroke="#fcb131"
         id="circle8" />
      <circle
         cx="229.5"
         cy="104"
         r="49.25"
         stroke="#00a651"
         id="circle10" />
      <path
         d="m 93.4,24.45 a 49.25,49.25 0 0 1 0,59.1"
         stroke="#0081c8"
         id="path12-2" />
      <path
         d="m 210.4,24.45 a 49.25,49.25 0 0 1 0,59.1 M 171,103.25 A 49.25,49.25 0 0 1 141.45,93.4"
         id="path14-8" />
      <path
         d="M 288,103.25 A 49.25,49.25 0 0 1 258.45,93.4"
         stroke="#ee334e"
         id="path16-97" />
    </g>
    <path
       d="m 26.946462,44.254113 a 0.95573406,0.35617385 0 0 0 -0.955735,-0.356174 h -9.701638 a 0.95573447,0.356174 0 1 0 0,0.712348 h 9.701638 a 0.95573406,0.35617385 0 0 0 0.955735,-0.356174 z"
       id="path6-3"
       style="fill:#008000;fill-opacity:1;stroke-width:0.114401" />
  </g>
</svg>
